Coordinates
version=1
nRows=34
nColumns=19
inDegrees=yes

Units are S.I. units (second, meters, Newtons, ...)
If the header above contains a line with 'inDegrees', this indicates whether rotational values are in degrees (yes) or radians (no).

endheader
time	pelvis_tilt	pelvis_list	pelvis_rotation	pelvis_tx	pelvis_ty	pelvis_tz	hip_flexion_r	hip_adduction_r	hip_rotation_r	knee_angle_r	knee_angle_r_beta	ankle_angle_r	hip_flexion_l	hip_adduction_l	hip_rotation_l	knee_angle_l	knee_angle_l_beta	ankle_angle_l
     11.43333333	     -1.16580856	     -3.53502050	      0.68461936	      2.11499873	      1.02573436	      1.02162493	     24.30744979	      6.35270298	     -0.37240246	     22.55875947	      0.39372463	      8.95871487	     -9.35565834	     -5.04333420	     -5.83194816	     50.28963979	      0.87771979	    -15.27767585
     11.44000000	     -0.76537867	     -4.26427130	      0.47656832	      2.11456318	      1.02140743	      1.02197618	     23.74972231	      7.12323580	     -0.92157551	     23.15641251	      0.40415564	      8.00664518	     -8.51484078	     -5.80959716	     -5.44726817	     53.72282994	      0.93764027	    -14.23598308
     11.44666667	     -0.65738049	     -4.99302548	      0.42438328	      2.11393142	      1.01657779	      1.02213011	     23.60853434	      7.77845412	     -1.75580185	     24.13828225	      0.42129250	      7.14457950	     -7.19690280	     -6.56640313	     -4.81718063	     57.28200993	      0.99975968	    -13.31045619
     11.45333333	     -0.67728532	     -5.67348923	      0.25261475	      2.11299709	      1.01132900	      1.02236481	     23.79782085	      8.38337051	     -2.54408828	     25.67921072	      0.44818678	      6.62946635	     -5.67955822	     -7.19923575	     -4.20178514	     60.84832408	      1.06200360	    -12.43921829
     11.46000000	     -0.77055859	     -6.31008878	      0.00509040	      2.11188991	      1.00578011	      1.02267998	     24.16481051	      8.95890330	     -3.20600169	     27.58625487	      0.48147098	      6.50459882	     -4.03774451	     -7.80119736	     -3.69914023	     64.39585778	      1.12391974	    -11.62736062
     11.46666667	     -0.79241846	     -7.02155960	     -0.26733993	      2.11053835	      1.00025359	      1.02297921	     24.46688183	      9.62948037	     -3.73852535	     29.63211151	      0.51717791	      6.74627247	     -2.41844287	     -8.48445039	     -3.22576110	     67.89620950	      1.18501241	    -10.88333023
     11.47333333	     -0.95403577	     -7.63696017	     -0.62552005	      2.10887381	      0.99453636	      1.02336481	     24.95882371	     10.26521768	     -4.00042547	     31.86141210	      0.55608655	      7.41338160	     -0.58254403	     -9.05395793	     -2.78170056	     71.35393535	      1.24536111	    -10.16322365
     11.48000000	     -1.11850361	     -8.31562814	     -1.02910163	      2.10697799	      0.98892767	      1.02377082	     25.39534089	     11.03334621	     -4.05026716	     34.04530398	      0.59420265	      8.42182761	      1.30075542	     -9.73313314	     -2.39677253	     74.73433467	      1.30436020	     -9.46073044
     11.48666667	     -0.50779053	     -8.92982261	     -1.46285981	      2.10491110	      0.98447723	      1.02419100	     24.88189156	     11.82156608	     -3.83142026	     36.10261865	      0.63010956	      9.87712216	      2.26843401	    -10.37389246	     -2.23030247	     77.79367968	      1.35775585	     -8.76366670
     11.49333333	     -1.66701029	     -9.37923085	     -2.00576091	      2.10226933	      0.97819339	      1.02472579	     26.33141540	     12.51874928	     -3.42106484	     38.23429937	      0.66731441	     11.27431425	      5.47228532	    -10.76219955	     -1.60485591	     81.13299488	      1.41603789	     -8.02950593
     11.50000000	     -1.00047335	     -9.87495060	     -2.40404826	      2.09964405	      0.97471766	      1.02503788	     25.51637170	     13.30846025	     -2.80555092	     39.87373907	      0.69592803	     12.83306116	      6.51266646	    -11.19883410	     -1.25580046	     83.86846025	      1.46378077	     -7.48262057
     11.50666667	     -2.25711506	    -10.31242895	     -3.07189884	      2.09677666	      0.96907800	      1.02577834	     26.79285660	     14.12637930	     -2.24547949	     41.55309574	      0.72523834	     14.54692384	      9.85965539	    -11.75375438	     -0.79770864	     86.85156787	      1.51584582	     -6.54308982
     11.51333333	     -2.60098054	    -10.60855503	     -3.58116871	      2.09383561	      0.96529614	      1.02625338	     26.86644610	     14.78029103	     -1.58290102	     42.85918959	      0.74803397	     16.16312183	     12.17745987	    -12.06939283	     -0.33358490	     89.38309063	      1.56002923	     -5.81263676
     11.52000000	     -2.84979739	    -10.86268815	     -4.06058852	      2.09090596	      0.96221731	      1.02671440	     26.66402813	     15.38213347	     -0.91981039	     43.86698376	      0.76562330	     17.66634951	     14.40010772	    -12.36365821	      0.12873335	     91.64625581	      1.59952891	     -5.05734383
     11.52666667	     -3.16926962	    -10.96103176	     -4.48101476	      2.08800190	      0.95970387	      1.02710388	     26.40284305	     15.78991757	     -0.27373392	     44.64221825	      0.77915369	     19.02474126	     16.72826168	    -12.47694972	      0.63412188	     93.63638540	      1.63426322	     -4.30094224
     11.53333333	     -2.93412155	    -10.98738375	     -4.82728049	      2.08538304	      0.95853876	      1.02738575	     25.34172032	     16.05263303	      0.38665688	     45.10581139	      0.78724492	     20.30732214	     18.34945554	    -12.50455097	      0.99569698	     95.21841916	      1.66187492	     -3.52386957
     11.54000000	     -3.38604297	    -10.97794133	     -5.19943286	      2.08283855	      0.95709746	      1.02777121	     24.91904250	     16.27315202	      0.94609002	     45.36961679	      0.79184919	     21.33272335	     20.79863498	    -12.57141215	      1.45605018	     96.65487748	      1.68694585	     -2.78340122
     11.54666667	     -3.25357861	    -10.73801342	     -5.44598768	      2.08062227	      0.95712559	      1.02807801	     23.71282070	     16.16943571	      1.57997482	     45.38652177	      0.79214424	     22.19983912	     22.48041307	    -12.37546210	      1.71662036	     97.61372801	      1.70368095	     -2.12261204
     11.55333333	     -3.18321612	    -10.46346779	     -5.69270549	      2.07863683	      0.95763679	      1.02837525	     22.44502471	     15.99220307	      2.20584163	     45.18398072	      0.78860923	     22.83749466	     24.16998809	    -12.15373937	      1.92719732	     98.29430582	      1.71555927	     -1.49281729
     11.56000000	     -3.23973418	    -10.13134300	     -5.92432577	      2.07705796	      0.95862855	      1.02865207	     21.17262665	     15.70046690	      2.77297107	     44.72734504	      0.78063944	     23.42697276	     25.90415115	    -11.94129864	      2.03552053	     98.65925128	      1.72192877	     -0.82581971
     11.56666667	     -3.37216087	     -9.75378429	     -6.13131288	      2.07578822	      0.96001913	      1.02896681	     19.88481918	     15.32730170	      3.31961732	     44.09197843	      0.76955020	     23.88337986	     27.63386842	    -11.73313945	      2.06221221	     98.74399132	      1.72340777	     -0.18083327
     11.57333333	     -3.56061005	     -9.32711860	     -6.33241613	      2.07480474	      0.96189906	      1.02920720	     18.54698044	     14.86266283	      3.86043034	     43.23897918	      0.75466255	     24.20121938	     29.31661026	    -11.49985360	      1.99385074	     98.52959023	      1.71966576	      0.42636731
     11.58000000	     -3.74170390	     -8.85511893	     -6.48204296	      2.07414753	      0.96431938	      1.02940445	     17.06682257	     14.37121653	      4.57753865	     42.13029673	      0.73531239	     24.44469218	     30.87165886	    -11.21470766	      1.87560951	     98.01561880	      1.71069527	      1.07862347
     11.58666667	     -4.02431329	     -8.34048742	     -6.67897273	      2.07384307	      0.96716285	      1.02953070	     15.58679662	     13.75497330	      5.15297688	     40.78813758	      0.71188730	     24.51041149	     32.39161079	    -10.92552503	      1.62063192	     97.21659668	      1.69674970	      1.66578754
     11.59333333	     -3.53519561	     -7.80151620	     -6.85291611	      2.07406538	      0.97154640	      1.02975253	     13.06703427	     13.04789629	      5.99075074	     39.08204816	      0.68211042	     24.43463419	     32.78785558	    -10.69498244	      1.04360948	     95.97795364	      1.67513130	      2.30055605
     11.60000000	     -3.96915845	     -7.20950268	     -6.94449750	      2.07417861	      0.97491151	      1.02965785	     11.60359920	     12.30390147	      6.54978066	     37.36407285	      0.65212609	     24.16680320	     34.27893932	    -10.33690192	      0.69999244	     94.70887200	      1.65298165	      2.87624823
     11.60666667	     -3.09626727	     -6.59290889	     -6.93190608	      2.07496135	      0.98044393	      1.02951250	      8.48449619	     11.32457654	      7.14345103	     35.16216105	      0.61369548	     23.70703695	     34.00655973	     -9.96391522	     -0.02935803	     92.94273618	      1.62215676	      3.49332082
     11.61333333	     -3.83034633	     -5.91002578	     -7.00671452	      2.07560596	      0.98404375	      1.02934124	      7.24631224	     10.47335205	      7.63096959	     33.16886200	      0.57890585	     22.99959405	     35.56617692	     -9.50754005	     -0.44901233	     91.19911920	      1.59172490	      3.99182187
     11.62000000	     -3.06759084	     -5.17613144	     -6.82661763	      2.07680580	      0.98979371	      1.02904828	      4.19014926	      9.31078907	      7.89633003	     30.70696511	      0.53593764	     22.03027322	     35.21582161	     -8.92735272	     -1.17822462	     89.00985534	      1.55351504	      4.55223513
     11.62666667	     -3.10461478	     -4.40319405	     -6.62572177	      2.07794760	      0.99452307	      1.02866366	      2.10593781	      8.20686414	      7.95572022	     28.39236858	      0.49554031	     20.79105415	     35.74245804	     -8.27245942	     -1.73777756	     86.75278338	      1.51412171	      4.96374483
     11.63333333	     -3.11917229	     -3.60608466	     -6.45154539	      2.07921133	      0.99928676	      1.02840261	      0.01929214	      7.09218516	      7.95361162	     26.07745446	      0.45513744	     19.26625129	     36.11028125	     -7.65440865	     -2.43026678	     84.30321302	      1.47136864	      5.34536092
     11.64000000	     -3.31623651	     -2.79187975	     -6.08216574	      2.08051729	      1.00369473	      1.02797763	     -1.77281730	      5.98238557	      7.52313485	     23.90467453	      0.41721528	     17.50371738	     36.63976325	     -6.90114693	     -2.97720414	     81.72246787	      1.42632614	      5.64667932
     11.64666667	     -3.35146671	     -2.02447208	     -5.76649034	      2.08187188	      1.00824433	      1.02769976	     -3.70122282	      4.93530930	      7.03905035	     21.77453871	      0.38003739	     15.45308944	     36.84142180	     -6.25813710	     -3.65923414	     78.95795929	      1.37807636	      5.92946416
     11.65333333	     -3.46525690	     -1.29949449	     -5.41672161	      2.08323102	      1.01250504	      1.02744054	     -5.43253571	      3.97949809	      6.37242145	     19.84931702	      0.34643594	     13.18015489	     37.04271823	     -5.64601685	     -4.33919367	     76.06584854	      1.32759951	      6.14585425
